<svg width="207" height="198" viewBox="0 0 207 198" fill="none" xmlns="http://www.w3.org/2000/svg">
<g filter="url(#filter0_g_1088_10816)">
<g filter="url(#filter1_g_1088_10816)">
<path d="M48.3477 81.9916C48.3477 76.8568 49.1581 72.1741 50.7789 67.9433C52.4357 63.7125 54.7229 60.0603 57.6403 56.9867C60.5938 53.913 63.9975 51.5626 67.8515 49.9354C71.7054 48.272 75.8655 47.4403 80.3317 47.4403C85.5544 47.4403 90.1467 48.5251 94.1087 50.6947C98.0707 52.8282 101.24 55.6487 103.617 59.1563C106.031 55.6487 109.2 52.8282 113.126 50.6947C117.088 48.5251 121.681 47.4403 126.903 47.4403C131.369 47.4403 135.53 48.272 139.383 49.9354C143.273 51.5626 146.677 53.913 149.595 56.9867C152.512 60.0603 154.781 63.7125 156.402 67.9433C158.059 72.1741 158.887 76.8568 158.887 81.9916C158.887 89.73 156.852 97.4141 152.782 105.044C148.712 112.638 142.967 120.032 135.548 127.228C128.164 134.388 119.483 141.222 109.506 147.731C108.498 148.382 107.453 148.961 106.373 149.467C105.328 150.009 104.41 150.281 103.617 150.281C102.861 150.281 101.943 150.009 100.862 149.467C99.7815 148.961 98.755 148.382 97.7825 147.731C87.7695 141.222 79.0531 134.388 71.6334 127.228C64.2497 120.032 58.5228 112.638 54.4527 105.044C50.3827 97.4141 48.3477 89.73 48.3477 81.9916Z" fill="url(#paint0_radial_1088_10816)"/>
<path d="M48.3477 81.9916C48.3477 76.8568 49.1581 72.1741 50.7789 67.9433C52.4357 63.7125 54.7229 60.0603 57.6403 56.9867C60.5938 53.913 63.9975 51.5626 67.8515 49.9354C71.7054 48.272 75.8655 47.4403 80.3317 47.4403C85.5544 47.4403 90.1467 48.5251 94.1087 50.6947C98.0707 52.8282 101.24 55.6487 103.617 59.1563C106.031 55.6487 109.2 52.8282 113.126 50.6947C117.088 48.5251 121.681 47.4403 126.903 47.4403C131.369 47.4403 135.53 48.272 139.383 49.9354C143.273 51.5626 146.677 53.913 149.595 56.9867C152.512 60.0603 154.781 63.7125 156.402 67.9433C158.059 72.1741 158.887 76.8568 158.887 81.9916C158.887 89.73 156.852 97.4141 152.782 105.044C148.712 112.638 142.967 120.032 135.548 127.228C128.164 134.388 119.483 141.222 109.506 147.731C108.498 148.382 107.453 148.961 106.373 149.467C105.328 150.009 104.41 150.281 103.617 150.281C102.861 150.281 101.943 150.009 100.862 149.467C99.7815 148.961 98.755 148.382 97.7825 147.731C87.7695 141.222 79.0531 134.388 71.6334 127.228C64.2497 120.032 58.5228 112.638 54.4527 105.044C50.3827 97.4141 48.3477 89.73 48.3477 81.9916Z" fill="url(#paint1_radial_1088_10816)" fill-opacity="0.19"/>
</g>
</g>
<defs>
<filter id="filter0_g_1088_10816" x="0.907326" y="-2.28882e-05" width="205.42" height="197.721" filterUnits="userSpaceOnUse" color-interpolation-filters="sRGB">
<feFlood flood-opacity="0" result="BackgroundImageFix"/>
<feBlend mode="normal" in="SourceGraphic" in2="BackgroundImageFix" result="shape"/>
<feTurbulence type="fractalNoise" baseFrequency="1.8417874574661255 1.8417874574661255" numOctaves="3" seed="837" />
<feDisplacementMap in="shape" scale="94.880661010742188" xChannelSelector="R" yChannelSelector="G" result="displacedImage" width="100%" height="100%" />
<feMerge result="effect1_texture_1088_10816">
<feMergeNode in="displacedImage"/>
</feMerge>
</filter>
<filter id="filter1_g_1088_10816" x="48.3477" y="47.4403" width="110.54" height="102.84" filterUnits="userSpaceOnUse" color-interpolation-filters="sRGB">
<feFlood flood-opacity="0" result="BackgroundImageFix"/>
<feBlend mode="normal" in="SourceGraphic" in2="BackgroundImageFix" result="shape"/>
<feTurbulence type="fractalNoise" baseFrequency="2.9468598365783691 2.9468598365783691" numOctaves="3" seed="6468" />
<feDisplacementMap in="shape" scale="0" xChannelSelector="R" yChannelSelector="G" result="displacedImage" width="100%" height="100%" />
<feMerge result="effect1_texture_1088_10816">
<feMergeNode in="displacedImage"/>
</feMerge>
</filter>
<radialGradient id="paint0_radial_1088_10816" cx="0" cy="0" r="1" gradientUnits="userSpaceOnUse" gradientTransform="translate(130.13 64.0682) rotate(107.094) scale(90.1969 96.9496)">
<stop stop-color="#FDBBEB"/>
<stop offset="1" stop-color="#90AAFF"/>
</radialGradient>
<radialGradient id="paint1_radial_1088_10816" cx="0" cy="0" r="1" gradientUnits="userSpaceOnUse" gradientTransform="translate(96.8739 125.489) rotate(-113.663) scale(32.9741 35.4427)">
<stop stop-color="white"/>
<stop offset="1" stop-color="#EDFEAF"/>
</radialGradient>
</defs>
</svg>
