<svg width="67" height="60" viewBox="0 0 67 60" fill="none" xmlns="http://www.w3.org/2000/svg">
<path d="M36.8665 7.23578C36.8114 6.56398 37.0152 5.98579 37.4777 5.50121C37.9513 5.02765 38.6066 4.80188 39.4436 4.8239C42.2629 4.91201 44.9942 5.56179 47.6373 6.77323C50.2805 8.0067 52.6759 9.69722 54.8234 11.8448C56.971 13.9923 58.656 16.4042 59.8785 19.0804C61.1009 21.7566 61.7562 24.4713 61.8443 27.2246C61.8773 28.0726 61.6516 28.7279 61.167 29.1905C60.6824 29.653 60.1042 29.8568 59.4324 29.8017C58.7826 29.7466 58.2871 29.4823 57.9456 29.0088C57.6042 28.5352 57.417 27.9515 57.384 27.2577C57.2738 25.033 56.7342 22.8634 55.765 20.7489C54.7849 18.6454 53.4248 16.7236 51.6847 14.9835C49.9446 13.2435 48.0228 11.8833 45.9193 10.9032C43.8048 9.934 41.6352 9.39436 39.4105 9.28423C38.7277 9.24017 38.144 9.04194 37.6594 8.68952C37.1749 8.35912 36.9105 7.87454 36.8665 7.23578ZM36.6683 16.9494C36.5912 16.2776 36.8059 15.6884 37.3125 15.1818C37.8081 14.6862 38.4579 14.4769 39.2619 14.554C40.7927 14.6752 42.3015 15.1047 43.7883 15.8426C45.275 16.5804 46.6352 17.5661 47.8686 18.7996C49.1021 20.0331 50.0878 21.3932 50.8257 22.8799C51.5635 24.3667 51.9986 25.881 52.1307 27.4229C52.1968 28.2158 51.982 28.8601 51.4864 29.3557C50.9798 29.8623 50.3961 30.0825 49.7354 30.0165C49.0966 29.9504 48.6175 29.6806 48.2981 29.207C47.9788 28.7555 47.764 28.1993 47.6539 27.5385C47.5327 26.5583 47.2078 25.5727 46.6792 24.5815C46.1616 23.6013 45.5118 22.7203 44.7299 21.9383C43.9479 21.1564 43.0614 20.5011 42.0702 19.9725C41.09 19.4549 40.1154 19.141 39.1462 19.0309C38.4744 18.9317 37.9072 18.717 37.4447 18.3866C36.9821 18.0562 36.7233 17.5771 36.6683 16.9494Z" fill="#D5CCFF"/>
<path d="M0 34.0126C0 32.0788 0.306417 30.3152 0.919252 28.7218C1.54571 27.1285 2.41048 25.753 3.51359 24.5954C4.63031 23.4378 5.91726 22.5526 7.37445 21.9398C8.83163 21.3133 10.4046 21.0001 12.0933 21.0001C14.068 21.0001 15.8043 21.4087 17.3024 22.2258C18.8004 23.0293 19.9988 24.0915 20.8977 25.4125C21.8101 24.0915 23.0085 23.0293 24.493 22.2258C25.991 21.4087 27.7274 21.0001 29.7021 21.0001C31.3908 21.0001 32.9637 21.3133 34.4209 21.9398C35.8917 22.5526 37.1786 23.4378 38.2817 24.5954C39.3849 25.753 40.2428 27.1285 40.8557 28.7218C41.4821 30.3152 41.7953 32.0788 41.7953 34.0126C41.7953 36.927 41.0259 39.821 39.487 42.6945C37.9481 45.5544 35.7759 48.3394 32.9705 51.0495C30.1787 53.7459 26.8966 56.3198 23.1243 58.7712C22.743 59.0163 22.348 59.2342 21.9395 59.4249C21.5445 59.6291 21.1973 59.7313 20.8977 59.7313C20.6117 59.7313 20.2644 59.6291 19.8558 59.4249C19.4473 59.2342 19.0592 59.0163 18.6915 58.7712C14.9055 56.3198 11.6098 53.7459 8.80439 51.0495C6.01259 48.3394 3.84724 45.5544 2.30834 42.6945C0.769448 39.821 0 36.927 0 34.0126ZM4.73926 33.9922C4.73926 35.7218 5.14781 37.499 5.96493 39.3239C6.79566 41.1352 7.93962 42.9328 9.3968 44.7168C10.854 46.4872 12.5359 48.2032 14.4425 49.8646C16.3491 51.5261 18.385 53.0718 20.5504 54.5018C20.7274 54.6379 20.8432 54.706 20.8977 54.706C20.9521 54.706 21.0747 54.6379 21.2654 54.5018C23.4171 53.0718 25.4463 51.5261 27.3529 49.8646C29.2595 48.2032 30.9413 46.4872 32.3985 44.7168C33.8557 42.9328 34.9929 41.1352 35.81 39.3239C36.6407 37.499 37.0561 35.7218 37.0561 33.9922C37.0561 32.3171 36.7156 30.8531 36.0347 29.6002C35.3674 28.3473 34.4481 27.3736 33.2769 26.6791C32.1057 25.9709 30.7779 25.6168 29.2935 25.6168C28.0951 25.6168 27.0737 25.8211 26.2293 26.2296C25.385 26.6246 24.6564 27.1353 24.0436 27.7617C23.4307 28.3746 22.8996 28.9942 22.4502 29.6207C22.1506 30.0156 21.885 30.3016 21.6535 30.4786C21.4356 30.6557 21.1837 30.7442 20.8977 30.7442C20.6117 30.7442 20.3529 30.6625 20.1214 30.4991C19.8899 30.322 19.6243 30.0292 19.3247 29.6207C18.9025 28.9942 18.385 28.3746 17.7722 27.7617C17.173 27.1489 16.4444 26.6382 15.5864 26.2296C14.7285 25.8211 13.7003 25.6168 12.5018 25.6168C11.0174 25.6168 9.6896 25.9709 8.5184 26.6791C7.34721 27.3736 6.42115 28.3473 5.74022 29.6002C5.07291 30.8531 4.73926 32.3171 4.73926 33.9922Z" fill="#D5CCFF"/>
</svg>
