<svg width="59" height="59" viewBox="0 0 59 59" fill="none" xmlns="http://www.w3.org/2000/svg">
<path d="M2.13478 34.4504C1.52993 34.4504 1.02292 34.2346 0.613749 33.8029C0.204583 33.3713 0 32.8587 0 32.2652V24.091C0 23.4975 0.204583 22.9849 0.613749 22.5533C1.02292 22.1036 1.52993 21.8788 2.13478 21.8788C2.75743 21.8788 3.27333 22.1036 3.6825 22.5533C4.09166 22.9849 4.29625 23.4975 4.29625 24.091V32.2652C4.29625 32.8587 4.09166 33.3713 3.6825 33.8029C3.27333 34.2346 2.75743 34.4504 2.13478 34.4504ZM11.1009 45.4842C10.496 45.4842 9.98899 45.2774 9.57983 44.8637C9.18845 44.4321 8.99276 43.9105 8.99276 43.299V13.0572C8.99276 12.4457 9.18845 11.9241 9.57983 11.4925C9.98899 11.0608 10.496 10.845 11.1009 10.845C11.7235 10.845 12.2394 11.0608 12.6486 11.4925C13.0755 11.9241 13.289 12.4457 13.289 13.0572V43.299C13.289 43.9105 13.0755 44.4321 12.6486 44.8637C12.2394 45.2774 11.7235 45.4842 11.1009 45.4842ZM20.0669 56.3562C19.4621 56.3562 18.9551 56.1404 18.5459 55.7087C18.1545 55.2951 17.9588 54.7825 17.9588 54.171V2.18519C17.9588 1.57369 18.1545 1.06112 18.5459 0.647462C18.9551 0.215821 19.4621 0 20.0669 0C20.6896 0 21.2055 0.215821 21.6147 0.647462C22.0416 1.06112 22.2551 1.57369 22.2551 2.18519V54.171C22.2551 54.7825 22.0416 55.2951 21.6147 55.7087C21.2055 56.1404 20.6896 56.3562 20.0669 56.3562ZM29.0864 42.193C28.4637 42.193 27.9478 41.9861 27.5387 41.5725C27.1295 41.1588 26.9249 40.6462 26.9249 40.0348V16.3214C26.9249 15.71 27.1295 15.1974 27.5387 14.7837C27.9478 14.3521 28.4637 14.1363 29.0864 14.1363C29.6912 14.1363 30.1983 14.3521 30.6074 14.7837C31.0166 15.1974 31.2212 15.71 31.2212 16.3214V40.0348C31.2212 40.6462 31.0166 41.1588 30.6074 41.5725C30.1983 41.9861 29.6912 42.193 29.0864 42.193ZM35.9177 37.7417V8.14723C35.9177 7.55373 36.1134 7.04115 36.5047 6.60951C36.9139 6.17787 37.4298 5.96205 38.0525 5.96205C38.6573 5.96205 39.1643 6.17787 39.5735 6.60951C40.0005 7.04115 40.2139 7.55373 40.2139 8.14723V35.7453C39.1643 35.7273 38.3015 35.9072 37.6255 36.2849C36.9673 36.6626 36.398 37.1482 35.9177 37.7417ZM41.8951 59C41.4681 59 41.1212 58.8651 40.8544 58.5953C40.5875 58.3436 40.4541 58.0018 40.4541 57.5702C40.4541 57.1385 40.5875 56.7788 40.8544 56.4911C41.1212 56.2213 41.4681 56.0864 41.8951 56.0864H47.2587V53.3887C45.4797 53.1908 43.9231 52.6243 42.5889 51.6891C41.2546 50.7718 40.2139 49.5848 39.4668 48.128C38.7374 46.6712 38.3727 45.0256 38.3727 43.1911V40.8171C38.3727 40.4394 38.5061 40.1067 38.773 39.8189C39.0576 39.5312 39.3956 39.3873 39.787 39.3873C40.1606 39.3873 40.4897 39.5312 40.7743 39.8189C41.0589 40.1067 41.2013 40.4394 41.2013 40.8171V43.1911C41.2013 44.6659 41.5126 45.9698 42.1352 47.1029C42.7757 48.2359 43.6563 49.1172 44.777 49.7467C45.9156 50.3941 47.2142 50.7179 48.673 50.7179C50.1496 50.7179 51.4482 50.3941 52.569 49.7467C53.6897 49.1172 54.5703 48.2359 55.2108 47.1029C55.8512 45.9698 56.1714 44.6659 56.1714 43.1911V40.8171C56.1714 40.4394 56.3048 40.1067 56.5717 39.8189C56.8563 39.5312 57.1943 39.3873 57.5857 39.3873C57.9593 39.3873 58.2884 39.5312 58.573 39.8189C58.8577 40.1067 59 40.4394 59 40.8171V43.1911C59 45.0256 58.6264 46.6712 57.8792 48.128C57.1499 49.5848 56.118 50.7718 54.7838 51.6891C53.4496 52.6063 51.9019 53.1728 50.1407 53.3887V56.0864H55.4776C55.9046 56.0864 56.2515 56.2213 56.5183 56.4911C56.7852 56.7788 56.9186 57.1385 56.9186 57.5702C56.9186 58.0018 56.7852 58.3436 56.5183 58.5953C56.2515 58.8651 55.9046 59 55.4776 59H41.8951ZM48.673 47.9931C47.3743 47.9931 46.3069 47.5435 45.4708 46.6443C44.6525 45.727 44.2433 44.585 44.2433 43.2181V32.6159C44.2433 31.249 44.6525 30.116 45.4708 29.2167C46.3069 28.3175 47.3743 27.8679 48.673 27.8679C49.9894 27.8679 51.0568 28.3175 51.8752 29.2167C52.6935 30.116 53.1027 31.249 53.1027 32.6159V43.2181C53.1027 44.585 52.6935 45.727 51.8752 46.6443C51.0568 47.5435 49.9894 47.9931 48.673 47.9931Z" fill="#FFD9E6"/>
</svg>
